<?xml version="1.0" encoding="utf-8"?>
<!-- Generator: Adobe Illustrator 23.0.1, SVG Export Plug-In . SVG Version: 6.00 Build 0)  -->
<svg version="1.1" id="Layer_1" xmlns="http://www.w3.org/2000/svg" xmlns:xlink="http://www.w3.org/1999/xlink" x="0px" y="0px"
	 viewBox="0 0 595.3 841.9" style="enable-background:new 0 0 595.3 841.9;" xml:space="preserve">
<style type="text/css">
	.st0{fill:#302D3D;}
</style>
<path class="st0" d="M479.5,552.6L348.9,422l130.6-130.6c14.1-14.1,14.1-36.8,0-50.9c-14.1-14.1-36.8-14.1-50.9,0L298,371.1
	L167.4,240.5c-14.1-14.1-36.8-14.1-50.9,0c-14.1,14.1-14.1,36.8,0,50.9L247.1,422L116.5,552.6c-14.1,14.1-14.1,36.8,0,50.9
	c14.1,14.1,36.8,14.1,50.9,0L298,472.9l130.6,130.6c14.1,14.1,36.8,14.1,50.9,0C493.5,589.4,493.5,566.6,479.5,552.6z"/>
</svg>
